<svg width="24" height="24" viewBox="0 0 24 24" fill="none" xmlns="http://www.w3.org/2000/svg">
<path fill-rule="evenodd" clip-rule="evenodd" d="M10 2C8.34315 2 7 3.34315 7 5V6H4C2.34315 6 1 7.34315 1 9V19C1 20.6569 2.34315 22 4 22H20C21.6569 22 23 20.6569 23 19V9C23 7.34315 21.6569 6 20 6H17V5C17 3.34315 15.6569 2 14 2H10ZM15 6V5C15 4.44772 14.5523 4 14 4H10C9.44771 4 9 4.44772 9 5V6H15ZM8 8H16H20C20.5523 8 21 8.44772 21 9V19C21 19.5523 20.5523 20 20 20H4C3.44772 20 3 19.5523 3 19V9C3 8.44772 3.44772 8 4 8H8ZM12 9C12.5523 9 13 9.44771 13 10H13.5C14.0523 10 14.5 10.4477 14.5 11C14.5 11.5523 14.0523 12 13.5 12H12H11.5C11.2239 12 11 12.2239 11 12.5C11 12.7761 11.2239 13 11.5 13H12.5C13.8807 13 15 14.1193 15 15.5C15 16.7095 14.1411 17.7184 13 17.95V18C13 18.5523 12.5523 19 12 19C11.4477 19 11 18.5523 11 18H10.5C9.94771 18 9.5 17.5523 9.5 17C9.5 16.4477 9.94771 16 10.5 16H12H12.5C12.7761 16 13 15.7761 13 15.5C13 15.2239 12.7761 15 12.5 15H11.5C10.1193 15 9 13.8807 9 12.5C9 11.2905 9.85888 10.2816 11 10.05V10C11 9.44771 11.4477 9 12 9Z" fill="white"/>
</svg>
